<svg height="512" viewBox="0 0 64 64" width="512" xmlns="http://www.w3.org/2000/svg"><path d="m19 23a3 3 0 0 0 3-3 2.9 2.9 0 0 0 -.055-.539l7.908-2.373a2.988 2.988 0 0 0 4.272.027l6.905 2.585a2.909 2.909 0 0 0 -.03.3 3 3 0 0 0 5.935.617l6.016-3.437a2.992 2.992 0 1 0 -.951-2.18 3.05 3.05 0 0 0 .04.4l-5.451 3.115a2.981 2.981 0 0 0 -4.714-.627l-6.905-2.588a2.909 2.909 0 0 0 .03-.3 3 3 0 0 0 -6 0c0 .085.018.165.025.248l-8.136 2.441a2.967 2.967 0 0 0 -1.889-.689 3 3 0 0 0 0 6zm36-9a1 1 0 1 1 -1 1 1 1 0 0 1 1-1zm-11 5a1 1 0 1 1 -1 1 1 1 0 0 1 1-1zm-12-5a1 1 0 1 1 -1 1 1 1 0 0 1 1-1zm-13 5a1 1 0 1 1 -1 1 1 1 0 0 1 1-1z"/><path d="m7 40h51v-2h-50v-26h-2v27a1 1 0 0 0 1 1z"/><path d="m11 27h2v9h-2z"/><path d="m15 29h2v7h-2z"/><path d="m19 25h2v11h-2z"/><path d="m23 28h2v8h-2z"/><path d="m27 36h30v-10h-30zm2-8h26v6h-26z"/><path d="m35 47a3 3 0 1 0 -3 3 3 3 0 0 0 3-3zm-3 1a1 1 0 1 1 1-1 1 1 0 0 1 -1 1z"/><path d="m59 2h-54a3 3 0 0 0 -3 3v44a3 3 0 0 0 3 3h20.132l-2.667 4h-8.465a1 1 0 0 0 -1 1v4a1 1 0 0 0 1 1h36a1 1 0 0 0 1-1v-4a1 1 0 0 0 -1-1h-8.465l-2.667-4h20.132a3 3 0 0 0 3-3v-44a3 3 0 0 0 -3-3zm-10 56v2h-34v-2zm-9.869-2h-14.262l2.666-4h8.93zm20.869-7a1 1 0 0 1 -1 1h-54a1 1 0 0 1 -1-1v-5h56zm0-7h-56v-32h56zm0-34h-56v-3a1 1 0 0 1 1-1h54a1 1 0 0 1 1 1z"/><path d="m31 30h2v2h-2z"/><path d="m36 30h2v2h-2z"/><path d="m41 30h2v2h-2z"/><path d="m46 30h2v2h-2z"/><path d="m51 30h2v2h-2z"/></svg>