<svg id="Capa_1" enable-background="new 0 0 512 512" height="512" viewBox="0 0 512 512" width="512" xmlns="http://www.w3.org/2000/svg"><g><path d="m189.178 234.851 24.427 20.924-7.463 31.286c-1.405 5.894.872 12.054 5.774 15.616 4.901 3.561 11.464 3.824 16.635.666l27.449-16.766 27.449 16.765c2.406 1.47 5.115 2.199 7.817 2.199 3.103 0 6.198-.961 8.817-2.865 4.902-3.562 7.18-9.722 5.774-15.616l-7.463-31.286 24.427-20.924c4.602-3.942 6.379-10.265 4.507-16.027s-7.027-9.833-13.067-10.317l-32.061-2.57-12.352-29.697c-2.326-5.594-7.791-9.24-13.85-9.24s-11.523 3.645-13.85 9.24l-12.352 29.697-32.061 2.57c-6.04.484-11.195 4.554-13.067 10.317s-.092 12.086 4.51 16.028zm52.15.258c5.607-.449 10.491-3.998 12.651-9.191l2.021-4.858 2.021 4.857c2.16 5.193 7.044 8.742 12.651 9.191l5.244.42-3.996 3.423c-4.271 3.659-6.137 9.401-4.832 14.872l1.221 5.117-4.49-2.742c-2.4-1.465-5.11-2.198-7.819-2.198s-5.419.733-7.818 2.199l-4.49 2.742 1.221-5.117c1.305-5.471-.561-11.213-4.832-14.872l-3.996-3.423z"/><path d="m436 60c-87.252 0-145.476-39.653-167.395-54.581-1.592-1.084-3.021-2.057-4.285-2.9-5.037-3.359-11.604-3.359-16.641 0-1.274.85-2.712 1.828-4.312 2.917-23.977 16.328-80.13 54.564-167.367 54.564-8.284 0-15 6.716-15 15v130.754c0 63.303 17.591 125.227 50.872 179.076 33.28 53.849 80.799 97.276 137.42 125.586 2.111 1.056 4.409 1.583 6.708 1.583s4.597-.528 6.708-1.583c56.62-28.31 104.14-71.737 137.42-125.586 33.281-53.849 50.872-115.773 50.872-179.076v-130.754c0-8.284-6.716-15-15-15zm-15 145.754c0 115.892-63.026 220.334-165 274.376-101.974-54.041-165-158.483-165-274.376v-116.106c83.057-3.919 139.732-39.495 164.999-56.528 25.286 17.046 81.95 52.613 165.001 56.528z"/><path d="m133.498 115.229c-7.216 1.221-12.498 7.471-12.498 14.79v75.74c0 95.222 47.404 182.98 126.808 234.752 2.489 1.623 5.341 2.435 8.192 2.435s5.703-.812 8.192-2.435c79.404-51.772 126.808-139.53 126.808-234.751v-75.74c0-7.321-5.284-13.572-12.502-14.791-40.162-6.782-78.838-20.874-114.955-41.886-4.662-2.712-10.424-2.712-15.086 0-36.09 20.996-74.768 35.089-114.959 41.886zm227.502 27.245v63.286c0 81.718-39.063 157.262-105 204.048-65.937-46.786-105-122.331-105-204.048v-63.289c36.501-7.49 71.734-20.549 105-38.92 33.287 18.384 68.518 31.443 105 38.923z"/></g></svg>