<svg id="Capa_1" enable-background="new 0 0 512.555 512.555" height="512" viewBox="0 0 512.555 512.555" width="512" xmlns="http://www.w3.org/2000/svg"><g><path d="m474.649 64.74h-134.927c-4.142 0-7.5 3.358-7.5 7.5s3.358 7.5 7.5 7.5h134.927c12.63 0 22.905 10.275 22.905 22.905v147.473c0 4.142 3.358 7.5 7.5 7.5s7.5-3.358 7.5-7.5v-147.473c.001-20.901-17.004-37.905-37.905-37.905z"/><path d="m7.5 231.058c4.142 0 7.5-3.358 7.5-7.5v-120.913c0-12.63 10.275-22.905 22.905-22.905h134.927c4.142 0 7.5-3.358 7.5-7.5s-3.358-7.5-7.5-7.5h-134.927c-20.901 0-37.905 17.004-37.905 37.905v120.914c0 4.141 3.358 7.499 7.5 7.499z"/><path d="m324.863 388.641h35.944c4.142 0 7.5-3.358 7.5-7.5s-3.358-7.5-7.5-7.5h-322.902c-12.63 0-22.905-10.275-22.905-22.905v-25.646h344.129c4.142 0 7.5-3.358 7.5-7.5s-3.358-7.5-7.5-7.5h-344.129v-54.57c0-4.142-3.358-7.5-7.5-7.5s-7.5 3.358-7.5 7.5v95.215c0 20.901 17.004 37.905 37.905 37.905h149.787v52.839l-24.559 30.434h-10.567c-4.142 0-7.5 3.358-7.5 7.5s3.358 7.5 7.5 7.5h206.563c4.142 0 7.5-3.358 7.5-7.5s-3.358-7.5-7.5-7.5h-9.708l-24.559-30.434v-52.838zm5.284 83.272h-147.74l18.621-23.075c1.077-1.334 1.664-2.996 1.664-4.71v-55.488h107.171v55.488c0 1.714.587 3.376 1.664 4.71z"/><path d="m486.335 268.872h-76.808c-14.458 0-26.22 11.762-26.22 26.22v165.602c0 14.458 11.762 26.22 26.22 26.22h76.808c14.458 0 26.22-11.762 26.22-26.22v-20.638c0-4.142-3.358-7.5-7.5-7.5s-7.5 3.358-7.5 7.5v20.638c0 6.187-5.033 11.22-11.22 11.22h-76.808c-6.187 0-11.22-5.033-11.22-11.22v-165.602c0-6.187 5.033-11.22 11.22-11.22h76.808c6.187 0 11.22 5.033 11.22 11.22v113.001c0 4.142 3.358 7.5 7.5 7.5s7.5-3.358 7.5-7.5v-113.001c0-14.457-11.763-26.22-26.22-26.22z"/><path d="m440.431 437.306v5.499c0 4.142 3.358 7.5 7.5 7.5s7.5-3.358 7.5-7.5v-5.499c0-4.142-3.358-7.5-7.5-7.5s-7.5 3.358-7.5 7.5z"/><path d="m248.777 344.57v6.275c0 4.142 3.358 7.5 7.5 7.5s7.5-3.358 7.5-7.5v-6.275c0-4.142-3.358-7.5-7.5-7.5s-7.5 3.358-7.5 7.5z"/><path d="m159.218 134.376v56.303c0 37.833 30.78 68.613 68.613 68.613h56.893c37.833 0 68.613-30.78 68.613-68.613v-9.458c0-4.142-3.358-7.5-7.5-7.5s-7.5 3.358-7.5 7.5v9.458c0 29.563-24.051 53.613-53.613 53.613h-56.893c-29.563 0-53.613-24.051-53.613-53.613v-56.303c0-6.56 5.336-11.896 11.896-11.896h140.328c6.559 0 11.896 5.336 11.896 11.896v14.882c0 4.142 3.358 7.5 7.5 7.5s7.5-3.358 7.5-7.5v-14.882c0-14.831-12.065-26.896-26.896-26.896h-7.713v-19.388c0-34.436-28.015-62.451-62.451-62.451s-62.451 28.015-62.451 62.451v19.388h-7.713c-14.831 0-26.896 12.065-26.896 26.896zm114.51-26.896h-34.901v-19.388c0-9.623 7.828-17.451 17.451-17.451s17.451 7.828 17.451 17.451v19.388zm-64.901-19.388c0-26.165 21.286-47.451 47.451-47.451s47.451 21.286 47.451 47.451v19.388h-15v-19.388c0-17.894-14.557-32.451-32.451-32.451s-32.451 14.557-32.451 32.451v19.388h-15z"/><path d="m287.81 162.18c-.752-15.83-13.726-28.998-29.535-29.978-8.819-.544-17.202 2.473-23.615 8.501-6.324 5.944-9.951 14.329-9.951 23.005 0 7.517 2.675 14.763 7.544 20.47l-3.656 13.894c-1.474 5.601-.291 11.443 3.245 16.029s8.885 7.217 14.676 7.217h19.519c5.792 0 11.141-2.63 14.676-7.217s4.718-10.429 3.245-16.029l-3.656-13.894c5.228-6.125 7.891-13.913 7.508-21.998zm-22.173 25.213 3.815 14.497c.384 1.46-.223 2.54-.618 3.054-.396.514-1.286 1.375-2.797 1.375h-19.519c-1.511 0-2.401-.861-2.797-1.375s-1.002-1.593-.618-3.054l3.815-14.498c1.177-4.475.037-9.228-3.05-12.715-2.682-3.028-4.159-6.923-4.159-10.968 0-4.621 1.855-8.909 5.224-12.076 3.105-2.919 7.099-4.493 11.342-4.493.355 0 .712.011 1.071.034 8.286.514 15.085 7.418 15.479 15.718.207 4.355-1.265 8.543-4.144 11.791-3.084 3.481-4.223 8.233-3.044 12.71z"/></g></svg>