<svg id="Capa_1" enable-background="new 0 0 510.851 510.851" height="512" viewBox="0 0 510.851 510.851" width="512" xmlns="http://www.w3.org/2000/svg"><g><path d="m462.002 166.685h-12.279c-4.143 0-7.5 3.358-7.5 7.5s3.357 7.5 7.5 7.5h12.279c18.664 0 33.849 15.184 33.849 33.848v138.192c0 4.142 3.357 7.5 7.5 7.5s7.5-3.358 7.5-7.5v-138.192c0-26.935-21.913-48.848-48.849-48.848z"/><path d="m503.351 378.188c-4.143 0-7.5 3.358-7.5 7.5v17.253c0 18.664-15.185 33.848-33.849 33.848h-21.044c-2.262 0-4.403 1.021-5.827 2.778l-21.931 27.063v-22.341c0-4.142-3.357-7.5-7.5-7.5h-227.945c-18.664 0-33.848-15.184-33.848-33.848v-187.408c0-18.664 15.184-33.848 33.848-33.848h55.879c4.143 0 7.5-3.358 7.5-7.5s-3.357-7.5-7.5-7.5h-55.879c-26.935 0-48.848 21.913-48.848 48.848v109.385h-21.758c-2.184 0-4.26.952-5.685 2.607l-24.174 28.087.103-23.161c.009-1.995-.777-3.911-2.185-5.325s-3.32-2.208-5.315-2.208h-21.044c-18.664 0-33.849-15.184-33.849-33.848v-187.407c0-18.664 15.185-33.848 33.849-33.848h8.759c4.143 0 7.5-3.358 7.5-7.5s-3.357-7.5-7.5-7.5h-8.759c-26.936 0-48.849 21.913-48.849 48.848v187.407c0 26.935 21.913 48.848 48.849 48.848h13.511l-.16 35.976c-.014 3.142 1.932 5.959 4.875 7.059.856.32 1.744.475 2.623.475 2.143 0 4.233-.919 5.687-2.608l35.205-40.901h18.317v63.022c0 26.935 21.913 48.848 48.848 48.848h220.445v36.009c0 3.177 2.001 6.008 4.995 7.069.82.291 1.666.431 2.504.431 2.219 0 4.376-.987 5.828-2.779l33.007-40.73h17.468c26.936 0 48.849-21.913 48.849-48.848v-17.253c0-4.142-3.358-7.5-7.5-7.5z"/><path d="m89.57 69.815h169.906c4.143 0 7.5-3.358 7.5-7.5s-3.357-7.5-7.5-7.5h-169.906c-4.143 0-7.5 3.358-7.5 7.5s3.358 7.5 7.5 7.5z"/><path d="m256.134 136.697v70.109c0 34.757 28.277 63.035 63.034 63.035h45.021c34.757 0 63.034-28.277 63.034-63.035v-70.109c0-11.754-9.563-21.317-21.316-21.317h-3.3v-10.433c0-4.142-3.357-7.5-7.5-7.5s-7.5 3.358-7.5 7.5v10.433h-17v-38.899c0-15.951-12.978-28.929-28.929-28.929s-28.928 12.978-28.928 28.929v38.899h-17.001v-38.899c0-25.325 20.604-45.929 45.93-45.929 24.136 0 44.261 18.851 45.817 42.917.268 4.134 3.83 7.271 7.969 7 4.133-.267 7.268-3.835 7-7.968-2.065-31.934-28.766-56.949-60.786-56.949-33.597 0-60.93 27.333-60.93 60.929v38.899h-3.299c-11.754 0-21.316 9.563-21.316 21.317zm156.089 0v70.109c0 26.486-21.548 48.035-48.034 48.035h-45.021c-26.486 0-48.034-21.548-48.034-48.035v-70.109c0-3.483 2.834-6.317 6.316-6.317h128.456c3.483 0 6.317 2.834 6.317 6.317zm-84.473-60.216c0-7.68 6.248-13.929 13.928-13.929 7.681 0 13.929 6.249 13.929 13.929v38.899h-27.857z"/><path d="m313.998 208.621c-1.474 5.601-.292 11.443 3.244 16.029 3.536 4.587 8.886 7.218 14.677 7.218h19.519c5.791 0 11.14-2.63 14.676-7.216s4.719-10.429 3.245-16.03l-3.656-13.893c5.229-6.126 7.893-13.914 7.508-22-.751-15.83-13.725-28.998-29.535-29.978-8.816-.55-17.2 2.473-23.613 8.501-6.324 5.944-9.951 14.33-9.951 23.006 0 7.517 2.674 14.762 7.543 20.47zm16.337-46.439c3.104-2.918 7.098-4.493 11.341-4.493.355 0 .713.011 1.071.034 8.286.514 15.086 7.418 15.48 15.718.206 4.355-1.265 8.542-4.144 11.79-3.085 3.479-4.225 8.229-3.047 12.711l3.815 14.497c.384 1.461-.223 2.541-.619 3.055s-1.285 1.375-2.796 1.375h-19.519c-1.511 0-2.4-.862-2.797-1.375-.396-.514-1.003-1.593-.618-3.054l3.814-14.496c1.179-4.477.038-9.231-3.05-12.716-2.682-3.028-4.158-6.923-4.158-10.969.002-4.622 1.858-8.911 5.227-12.077z"/></g></svg>