<svg id="Capa_1" enable-background="new 0 0 509.403 509.403" height="512" viewBox="0 0 509.403 509.403" width="512" xmlns="http://www.w3.org/2000/svg"><g><path d="m456.072 229.363-15.619-23.71c-2.895-4.394-2.979-10.127-.215-14.605l35.308-57.198c4.908-7.95 3.897-18.285-2.457-25.133l-18.63-20.082c-2.815-3.035-7.562-3.214-10.599-.397s-3.215 7.563-.397 10.599l18.63 20.082c1.783 1.921 2.066 4.82.689 7.051l-35.308 57.199c-5.817 9.424-5.64 21.488.452 30.736l15.618 23.709c18.489 28.069 24.595 61.583 17.19 94.368-7.403 32.785-27.318 60.423-56.075 77.821l-131.084 79.31c-11.641 7.044-26.106 7.044-37.749 0l-131.083-79.31c-28.757-17.398-48.671-45.036-56.075-77.821s-1.299-66.299 17.19-94.368l15.618-23.71c6.092-9.248 6.27-21.312.453-30.735l-35.308-57.199c-1.376-2.23-1.093-5.13.69-7.052l59.523-64.162c1.815-1.957 4.725-2.437 7.071-1.168l6.434 3.478c17.463 9.44 37.076 12.91 56.717 10.037 19.642-2.874 37.438-11.817 51.464-25.864l25.891-25.928c.256-.256.548-.311.75-.311.18-.045.497.054.755.315l24.922 25.289c14.011 14.217 31.851 23.293 51.591 26.249 19.741 2.956 39.455-.5 57.015-9.992l6.054-3.272c2.346-1.271 5.256-.79 7.071 1.168l19.153 20.646c2.816 3.036 7.563 3.215 10.599.397 3.037-2.817 3.215-7.563.397-10.599l-19.152-20.645c-6.47-6.975-16.833-8.685-25.201-4.163l-6.054 3.272c-29.73 16.071-67.065 10.483-90.789-13.589l-24.923-25.29c-3.028-3.072-7.072-4.771-11.386-4.786-.018 0-.036 0-.053 0-4.293 0-8.327 1.672-11.362 4.712l-25.892 25.928c-11.726 11.742-26.602 19.219-43.021 21.621-16.42 2.401-32.815-.5-47.413-8.39l-6.434-3.478c-8.368-4.522-18.731-2.811-25.2 4.162l-59.523 64.162c-6.354 6.849-7.364 17.184-2.457 25.133l35.308 57.199c2.764 4.478 2.679 10.211-.215 14.605l-15.618 23.71c-20.753 31.505-27.606 69.123-19.295 105.923 8.31 36.799 30.664 67.821 62.942 87.351l131.083 79.31c8.216 4.971 17.428 7.457 26.64 7.457 9.211 0 18.423-2.486 26.639-7.457l131.084-79.31c32.277-19.529 54.631-50.551 62.941-87.351 8.31-36.801 1.458-74.418-19.295-105.924z"/><path d="m390.524 78.56c-13.969 6.085-29.368 9.302-44.532 9.302-30.09 0-58.288-11.797-79.399-33.22l-6.213-6.304c-1.403-1.424-3.317-2.229-5.317-2.235-1.964-.034-3.919.786-5.332 2.2l-7.058 7.068c-13.736 13.755-30.787 23.699-49.308 28.755-3.996 1.091-6.351 5.215-5.26 9.21 1.091 3.996 5.215 6.35 9.21 5.26 21.038-5.744 40.392-17.026 55.972-32.626l1.716-1.719.906.92c23.952 24.305 55.944 37.69 90.083 37.69 15.432 0 31.072-2.933 45.563-8.516l29.793 32.115-23.656 38.323c-12.94 20.961-12.546 47.799 1.005 68.373l15.619 23.711c13.207 20.048 17.567 43.986 12.279 67.404-5.289 23.418-19.514 43.158-40.054 55.585l-131.083 79.31c-.457.276-1.056.276-1.513 0l-71.397-43.197c-3.544-2.144-8.156-1.01-10.299 2.535-2.144 3.544-1.009 8.155 2.535 10.299l71.397 43.197c2.571 1.555 5.517 2.377 8.521 2.377s5.95-.822 8.521-2.377l131.084-79.31c24.061-14.558 40.724-37.683 46.919-65.115 6.196-27.433 1.088-55.475-14.383-78.96l-15.619-23.71c-10.354-15.72-10.655-36.226-.769-52.242l26.654-43.18c1.771-2.87 1.41-6.568-.884-9.041l-37.209-40.108c-2.165-2.335-5.573-3.044-8.492-1.774z"/><path d="m82.56 248.617c-15.471 23.485-20.579 51.527-14.384 78.96 6.195 27.432 22.858 50.557 46.92 65.115l32.334 19.563c1.214.734 2.553 1.084 3.875 1.084 2.538 0 5.015-1.289 6.424-3.619 2.144-3.544 1.009-8.155-2.535-10.299l-32.334-19.563c-20.541-12.427-34.765-32.168-40.053-55.585-5.289-23.417-.928-47.355 12.278-67.404l15.619-23.71c13.551-20.575 13.946-47.414 1.005-68.375l-23.656-38.322 29.754-32.072c14.497 5.644 30.164 8.632 45.635 8.675h.021c4.132 0 7.488-3.344 7.5-7.479.012-4.142-3.337-7.509-7.479-7.521-15.208-.042-30.633-3.315-44.606-9.464-2.925-1.287-6.345-.58-8.52 1.764l-37.183 40.08c-2.293 2.472-2.655 6.171-.884 9.041l26.654 43.179c9.888 16.017 9.586 36.524-.769 52.244z"/><path d="m255.202 373.07c65.275 0 118.381-53.105 118.381-118.381 0-10.95-1.497-21.799-4.449-32.248-1.127-3.985-5.269-6.306-9.257-5.178-3.986 1.126-6.305 5.271-5.179 9.257 2.578 9.121 3.885 18.598 3.885 28.168 0 57.004-46.376 103.381-103.381 103.381-57.004 0-103.381-46.376-103.381-103.381s46.376-103.381 103.381-103.381c13.595 0 26.816 2.603 39.296 7.737 3.833 1.578 8.214-.252 9.79-4.083 1.575-3.831-.253-8.213-4.083-9.789-14.3-5.882-29.44-8.865-45.003-8.865-65.275 0-118.381 53.105-118.381 118.381s53.105 118.382 118.381 118.382z"/><path d="m251.805 215.443c-5.708-5.56-14.877-5.442-20.438.266l-15.418 15.824c-5.562 5.708-5.443 14.876.265 20.438l31.54 30.73c4.789 4.667 11.109 7.236 17.794 7.236.419 0 .839-.01 1.26-.031 7.052-.349 13.704-3.647 18.251-9.049l90.099-107.053c5.131-6.097 4.347-15.232-1.751-20.365l-16.903-14.226c-2.953-2.487-6.698-3.675-10.546-3.343-3.846.331-7.333 2.14-9.819 5.093l-72.438 86.069zm18.178 27.422 77.279-91.822 16.067 13.522-89.747 106.635c-1.872 2.225-4.611 3.583-7.514 3.727-2.947.138-5.751-.925-7.847-2.967l-31.148-30.349 14.655-15.041 17.281 16.838c1.492 1.454 3.509 2.225 5.604 2.119 2.083-.104 4.028-1.068 5.37-2.662z"/></g></svg>