<svg id="Capa_1" enable-background="new 0 0 514.082 514.082" height="512" viewBox="0 0 514.082 514.082" width="512" xmlns="http://www.w3.org/2000/svg"><g><path d="m315.055 309.931c-4.143 0-7.5 3.357-7.5 7.5v139.053c0 22.73-18.492 41.223-41.223 41.223h-210.109c-22.73 0-41.223-18.492-41.223-41.223v-319.623c0-4.143-3.358-7.5-7.5-7.5s-7.5 3.357-7.5 7.5v319.623c0 31.001 25.221 56.223 56.223 56.223h210.109c31.001 0 56.223-25.222 56.223-56.223v-139.053c0-4.142-3.358-7.5-7.5-7.5z"/><path d="m7.5 112.399c4.142 0 7.5-3.357 7.5-7.5v-47.301c0-22.73 18.492-41.223 41.223-41.223h210.109c22.73 0 41.223 18.492 41.223 41.223v36.913c0 4.143 3.357 7.5 7.5 7.5s7.5-3.357 7.5-7.5v-36.913c0-31.001-25.222-56.223-56.223-56.223h-210.109c-31.002 0-56.223 25.222-56.223 56.223v47.301c0 4.143 3.358 7.5 7.5 7.5z"/><path d="m108.692 482.707h157.64c14.459 0 26.223-11.764 26.223-26.223v-139.053c0-4.143-3.357-7.5-7.5-7.5s-7.5 3.357-7.5 7.5v139.053c0 6.188-5.034 11.223-11.223 11.223h-157.64c-4.142 0-7.5 3.357-7.5 7.5s3.358 7.5 7.5 7.5z"/><path d="m285.055 102.011c4.143 0 7.5-3.357 7.5-7.5v-36.913c0-14.459-11.764-26.223-26.223-26.223h-24.264c-7.121 0-13.423 4.537-15.682 11.289-1.169 3.491-4.429 5.838-8.112 5.838h-113.134c-3.683 0-6.943-2.346-8.111-5.837-2.26-6.753-8.563-11.29-15.683-11.29h-25.123c-14.46 0-26.223 11.764-26.223 26.223v398.886c0 14.459 11.763 26.223 26.223 26.223h20.507c4.142 0 7.5-3.357 7.5-7.5s-3.358-7.5-7.5-7.5h-20.507c-6.188 0-11.223-5.034-11.223-11.223v-398.886c0-6.188 5.035-11.223 11.223-11.223h25.123c.662 0 1.249.422 1.458 1.051 3.219 9.615 12.195 16.076 22.336 16.076h113.135c10.14 0 19.116-6.46 22.336-16.077.21-.628.796-1.05 1.458-1.05h24.264c6.188 0 11.223 5.034 11.223 11.223v36.913c-.001 4.143 3.356 7.5 7.499 7.5z"/><path d="m469.084 117.011h-12.96c-4.143 0-7.5 3.357-7.5 7.5s3.357 7.5 7.5 7.5h12.96c16.541 0 29.998 13.457 29.998 29.997v87.926c0 16.54-13.457 29.997-29.998 29.997h-4.844c-2.147 0-4.191.92-5.615 2.528l-17.262 19.494v-14.522c0-4.143-3.357-7.5-7.5-7.5h-164.953c-16.54 0-29.997-13.457-29.997-29.997v-87.926c0-16.54 13.457-29.997 29.998-29.997h155.251c4.143 0 7.5-3.357 7.5-7.5s-3.357-7.5-7.5-7.5h-155.251c-24.812 0-44.998 20.186-44.998 44.997v87.926c0 24.812 20.186 44.997 44.997 44.997h157.453v18.287c0 4.499 2.718 8.438 6.925 10.032 1.26.479 2.56.71 3.842.71 2.998 0 5.904-1.269 7.995-3.629l22.492-25.4h1.467c24.812 0 44.998-20.186 44.998-44.997v-87.926c0-24.811-20.186-44.997-44.998-44.997z"/><path d="m368.997 144.566c-10.243 0-19.6 4.733-25.668 12.986l-42.604 57.94c-7.157 9.733-8.215 22.477-2.761 33.257s16.348 17.478 28.429 17.478h85.208c12.081 0 22.975-6.697 28.429-17.478s4.396-23.523-2.761-33.258l-42.604-57.939c-6.067-8.253-15.424-12.986-25.668-12.986zm57.649 97.412c-2.931 5.792-8.555 9.249-15.045 9.249h-85.208c-6.49 0-12.114-3.457-15.045-9.249-2.93-5.791-2.384-12.371 1.461-17.6l42.604-57.939c3.212-4.368 8.163-6.873 13.584-6.873 5.422 0 10.373 2.505 13.585 6.873l42.604 57.939c3.844 5.229 4.39 11.809 1.46 17.6z"/><path d="m368.998 223.285c-4.143 0-7.5 3.357-7.5 7.5v3.633c0 4.143 3.357 7.5 7.5 7.5s7.5-3.357 7.5-7.5v-3.633c0-4.143-3.357-7.5-7.5-7.5z"/><path d="m368.998 171.936c-4.143 0-7.5 3.357-7.5 7.5v25.961c0 4.143 3.357 7.5 7.5 7.5s7.5-3.357 7.5-7.5v-25.961c0-4.143-3.357-7.5-7.5-7.5z"/><path d="m208.914 171.356c0-4.143-3.358-7.5-7.5-7.5h-103.19c-13.537 0-24.55 11.013-24.55 24.55v39.87c0 13.537 11.013 24.551 24.55 24.551h103.19c4.142 0 7.5-3.357 7.5-7.5s-3.358-7.5-7.5-7.5h-103.19c-5.266 0-9.55-4.284-9.55-9.551v-39.87c0-5.266 4.284-9.55 9.55-9.55h103.19c4.142 0 7.5-3.357 7.5-7.5z"/><path d="m119.943 200.841c-4.142 0-7.5 3.357-7.5 7.5s3.358 7.5 7.5 7.5h7.821c4.142 0 7.5-3.357 7.5-7.5s-3.358-7.5-7.5-7.5z"/><path d="m164.526 200.841c-4.142 0-7.5 3.357-7.5 7.5s3.358 7.5 7.5 7.5h7.822c4.142 0 7.5-3.357 7.5-7.5s-3.358-7.5-7.5-7.5z"/><path d="m229.079 383.116-4.038-24.315c-3.953-23.803-24.334-41.079-48.463-41.079s-44.51 17.276-48.463 41.079l-4.038 24.315-5.106 5.998c-3.927 4.615-4.788 10.899-2.246 16.399s7.885 8.917 13.944 8.917h18.746v5.172c0 14.978 12.185 27.162 27.163 27.162s27.163-12.185 27.163-27.162v-5.172h18.746c6.059 0 11.402-3.417 13.944-8.917s1.682-11.784-2.246-16.4zm-40.339 36.486c0 6.706-5.456 12.162-12.163 12.162s-12.163-5.456-12.163-12.162v-5.172h24.325v5.172zm34.073-20.381c-.097.209-.184.209-.328.209h-91.816c-.144 0-.23 0-.328-.209-.097-.21-.037-.28.052-.386l6.453-7.58c.881-1.035 1.464-2.291 1.688-3.633l4.378-26.365c2.746-16.535 16.904-28.536 33.666-28.536s30.92 12.001 33.666 28.536l4.379 26.365c.223 1.342.806 2.597 1.687 3.633l6.451 7.579c.09.107.149.177.052.387z"/><path d="m121.105 316.058-.264.104c-10.778 4.264-17.743 14.509-17.743 26.1 0 4.143 3.358 7.5 7.5 7.5s7.5-3.357 7.5-7.5c0-5.396 3.243-10.167 8.25-12.147l.253-.1c3.854-1.518 5.748-5.873 4.23-9.727-1.517-3.854-5.873-5.749-9.726-4.23z"/><path d="m79.475 343.152c4.142 0 7.5-3.357 7.5-7.5 0-13.865 8.332-26.121 21.229-31.223l.505-.2c3.851-1.525 5.736-5.884 4.21-9.734-1.526-3.852-5.885-5.737-9.735-4.211l-.502.198c-18.654 7.38-30.708 25.109-30.708 45.17.001 4.142 3.359 7.5 7.501 7.5z"/></g></svg>